<svg xmlns="http://www.w3.org/2000/svg" stroke-width=".5" viewBox="0 0 420 380" preserveAspectRatio="xMidYMid meet" style="width: 100%; height: 100%; max-height: 100%; display: block;"><path d="M0 0H420V380H0Z" fill="#0a111c" stroke="#0a111c" data-darkreader-inline-fill="" data-darkreader-inline-stroke="" style="--darkreader-inline-fill: var(--darkreader-text-0a111c, #dcd9d4); --darkreader-inline-stroke: var(--darkreader-text-0a111c, #dcd9d4);"/><path d="M68.79 291.14Q68 289 69.68 287.46L165.82 199.54Q167.5 198 169.21 199.51L195.29 222.49Q197 224 196.97 226.28L196.03 305.72Q196 308 193.72 308L77.28 308Q75 308 74.21 305.86Z" fill="#2b3037" stroke="#2b3037" data-darkreader-inline-fill="" data-darkreader-inline-stroke="" style="--darkreader-inline-fill: var(--darkreader-text-2b3037, #c9c4bd); --darkreader-inline-stroke: var(--darkreader-text-2b3037, #c9c4bd);"/><path d="M193.06 76.94H103.58C78.93 76.94 58.94 96.93 58.94 121.58V285.42C58.94 310.07 78.93 330.06 103.58 330.06H193.06" fill="none" stroke="#fff" stroke-width="9.88" stroke-linecap="round" stroke-linejoin="round" data-darkreader-inline-stroke="" style="--darkreader-inline-stroke: var(--darkreader-text-ffffff, #e8e6e3);"/><path d="M251.96 79.95C288.34 79.95 314.02 108.53 314.02 164.02V252" fill="none" stroke="#f3bc24" stroke-width="9.88" stroke-linecap="round" stroke-linejoin="round" data-darkreader-inline-stroke="" style="--darkreader-inline-stroke: var(--darkreader-text-f3bc24, #f4c135);"/><path d="M226.56 66H247.4Q251.96 66 251.96 70.56V89.34Q251.96 93.9 247.4 93.9H226.56Q222 93.9 222 89.34V70.56Q222 66 226.56 66Z" fill="#f3bc24" stroke="#f3bc24" data-darkreader-inline-fill="" data-darkreader-inline-stroke="" style="--darkreader-inline-fill: var(--darkreader-text-f3bc24, #f4c135); --darkreader-inline-stroke: var(--darkreader-text-f3bc24, #f4c135);"/><path d="M314.02 149.04A14.98 14.98 0 1 1 314.02 179A14.98 14.98 0 1 1 314.02 149.04Z" fill="#f3bc24" stroke="#f3bc24" data-darkreader-inline-fill="" data-darkreader-inline-stroke="" style="--darkreader-inline-fill: var(--darkreader-text-f3bc24, #f4c135); --darkreader-inline-stroke: var(--darkreader-text-f3bc24, #f4c135);"/><path d="M250.35 193.63C281.85 193.63 303.9 217.88 312.3 265.85" fill="none" stroke="#fff" stroke-width="9.88" stroke-linecap="round" stroke-linejoin="round" data-darkreader-inline-stroke="" style="--darkreader-inline-stroke: var(--darkreader-text-ffffff, #e8e6e3);"/><path d="M226.56 180H245.79Q250.35 180 250.35 184.56V202.71Q250.35 207.27 245.79 207.27H226.56Q222 207.27 222 202.71V184.56Q222 180 226.56 180Z" fill="#fff" stroke="#fff" data-darkreader-inline-fill="" data-darkreader-inline-stroke="" style="--darkreader-inline-fill: var(--darkreader-text-ffffff, #e8e6e3); --darkreader-inline-stroke: var(--darkreader-text-ffffff, #e8e6e3);"/><path d="M302.16 250.7H322.44Q327 250.7 327 255.26V276.44Q327 281 322.44 281H302.16Q297.6 281 297.6 276.44V255.26Q297.6 250.7 302.16 250.7Z" fill="#fff" stroke="#fff" data-darkreader-inline-fill="" data-darkreader-inline-stroke="" style="--darkreader-inline-fill: var(--darkreader-text-ffffff, #e8e6e3); --darkreader-inline-stroke: var(--darkreader-text-ffffff, #e8e6e3);"/><path d="M128.5 127A26.5 26.5 0 1 1 128.5 180A26.5 26.5 0 1 1 128.5 127Z" fill="#f3bc24" stroke="#f3bc24" data-darkreader-inline-fill="" data-darkreader-inline-stroke="" style="--darkreader-inline-fill: var(--darkreader-text-f3bc24, #f4c135); --darkreader-inline-stroke: var(--darkreader-text-f3bc24, #f4c135);"/><path d="M314.06 285.92V296C314.06 314.38 297.44 330.06 270 330.06H225.94" fill="none" stroke="#f3bc24" stroke-width="9.88" stroke-linecap="round" stroke-linejoin="round" data-darkreader-inline-stroke="" style="--darkreader-inline-stroke: var(--darkreader-text-f3bc24, #f4c135);"/><path d="M358.75 14.65Q359 14 359.25 14.65L366.29 33.15Q366.54 33.8 367.17 34.1L387.37 43.7Q388 44 387.37 44.3L367.17 53.9Q366.54 54.2 366.29 54.85L359.25 73.35Q359 74 358.75 73.35L351.71 54.85Q351.46 54.2 350.83 53.9L330.63 44.3Q330 44 330.63 43.7L350.83 34.1Q351.46 33.8 351.71 33.15Z" fill="#f3bc24" stroke="#f3bc24" data-darkreader-inline-fill="" data-darkreader-inline-stroke="" style="--darkreader-inline-fill: var(--darkreader-text-f3bc24, #f4c135); --darkreader-inline-stroke: var(--darkreader-text-f3bc24, #f4c135);"/></svg>