<svg xmlns="http://www.w3.org/2000/svg" stroke-width=".5" viewBox="0 0 420 380" preserveAspectRatio="xMidYMid meet" style="width: 100%; height: 100%; max-height: 100%; display: block;"><path d="M72.52 295.22Q72 293 73.62 291.4L164.38 201.6Q166 200 167.75 201.46L194.25 223.54Q196 225 195.87 227.28L191.13 307.72Q191 310 188.72 310L78.28 310Q76 310 75.48 307.78Z" fill="#232c3b" stroke="#232c3b"/><path d="M195.06 74.94H101.82C77.03 74.94 56.94 95.03 56.94 119.82V284.18C56.94 308.97 77.03 329.06 101.82 329.06H195.06" fill="none" stroke="#fff" stroke-width="9.88" stroke-linecap="round" stroke-linejoin="round"/><path d="M252.2 78.1C291.3 78.1 318.9 106.99 318.9 163.08V252" fill="none" stroke="#fcce44" stroke-width="9.88" stroke-linecap="round" stroke-linejoin="round"/><path d="M224.56 64H247.64Q252.2 64 252.2 68.56V87.64Q252.2 92.2 247.64 92.2H224.56Q220 92.2 220 87.64V68.56Q220 64 224.56 64Z" fill="#fcce44" stroke="#fcce44"/><path d="M318.9 146.98A16.1 16.1 0 1 1 318.9 179.18A16.1 16.1 0 1 1 318.9 146.98Z" fill="#fcce44" stroke="#fcce44"/><path d="M249.35 191.91C280.85 191.91 302.9 216.63 311.3 265.55" fill="none" stroke="#fff" stroke-width="9.88" stroke-linecap="round" stroke-linejoin="round"/><path d="M225.56 178H244.79Q249.35 178 249.35 182.56V201.25Q249.35 205.81 244.79 205.81H225.56Q221 205.81 221 201.25V182.56Q221 178 225.56 178Z" fill="#fff" stroke="#fff"/><path d="M301.16 250.1H321.44Q326 250.1 326 254.66V276.44Q326 281 321.44 281H301.16Q296.6 281 296.6 276.44V254.66Q296.6 250.1 301.16 250.1Z" fill="#fff" stroke="#fff"/><path d="M128 127A29 27 0 1 1 128 181A29 27 0 1 1 128 127Z" fill="#fcce44" stroke="#fcce44"/><path d="M317.06 284.92V295.36C317.06 314.82 299.56 331.06 271 331.06H224.94" fill="none" stroke="#fcce44" stroke-width="9.88" stroke-linecap="round" stroke-linejoin="round"/><path d="M359.23 11.71Q359.5 11 359.77 11.71L367.42 31.74Q367.69 32.45 368.37 32.77L390.32 43.18Q391 43.5 390.32 43.82L368.37 54.23Q367.69 54.55 367.42 55.26L359.77 75.29Q359.5 76 359.23 75.29L351.58 55.26Q351.31 54.55 350.63 54.23L328.68 43.82Q328 43.5 328.68 43.18L350.63 32.77Q351.31 32.45 351.58 31.74Z" fill="#fcce44" stroke="#fcce44"/></svg>